<svg xmlns="http://www.w3.org/2000/svg" version="1.1" xmlns:xlink="http://www.w3.org/1999/xlink" xmlns:svgjs="http://svgjs.com/svgjs" height="38.68999710083001" width="236.50541281746993"><g id="SvgjsG1085" rel="mainfill" name="main_text" xmlns:name="mainText_mainfill" fill="#333333" transform="translate(64.09540259884963,-15.735503005981478)"><path d="M1.512 20.202000000000005 q0.252 -0.042 0.756 -0.063 t0.924 -0.021 q0.378 0 0.882 0.021 t0.798 0.063 l5.838 26.964 l6.93 -26.964 q0.252 -0.042 0.819 -0.063 t0.945 -0.021 q0.336 0 0.924 0.021 t0.882 0.063 l6.888 26.964 l5.922 -26.964 q0.336 -0.042 0.735 -0.063 t0.777 -0.021 q0.42 0 0.903 0.021 t0.735 0.063 l-7.308 30.198 q-0.294 0.042 -0.882 0.063 t-0.966 0.021 q-0.42 0 -1.029 -0.021 t-0.903 -0.063 l-6.762 -26.292 l-6.72 26.292 q-0.294 0.042 -0.882 0.063 t-0.966 0.021 q-0.42 0 -1.029 -0.021 t-0.903 -0.063 z M42.924 20.076000000000004 l1.617 -0.147 t1.344 -0.126 t1.365 -0.084 t1.68 -0.021 q2.016 0 3.969 0.42 t3.507 1.449 t2.499 2.772 t0.945 4.389 q0 1.638 -0.588 2.982 t-1.533 2.415 t-2.184 1.848 t-2.541 1.281 l-0.336 0.126 l9.618 13.02 q-0.42 0.084 -0.84 0.084 l-0.84 0 l-0.819 0 t-0.819 -0.084 l-10.584 -13.986 l0 -0.168 l0.924 -0.252 q1.428 -0.378 2.772 -0.987 t2.373 -1.47 t1.659 -2.037 t0.63 -2.772 q0 -3.276 -2.016 -4.914 t-5.46 -1.638 q-0.882 0 -1.638 0.042 t-1.806 0.168 l0 28.014 q-0.294 0.042 -0.714 0.063 t-0.756 0.021 q-0.378 0 -0.756 -0.021 t-0.672 -0.063 l0 -30.324 z M74.256 20.202000000000005 q0.294 -0.042 0.798 -0.063 t0.924 -0.021 q0.462 0 0.945 0.021 t0.777 0.063 l10.08 30.198 q-0.252 0.042 -0.714 0.063 t-0.882 0.021 q-0.378 0 -0.798 -0.021 t-0.714 -0.063 l-2.52 -7.686 l-12.432 0 l-2.394 7.686 q-0.336 0.042 -0.777 0.063 t-0.819 0.021 q-0.42 0 -0.861 -0.021 t-0.693 -0.063 z M81.312 40.026 l-5.418 -16.8 l-5.334 16.8 l10.752 0 z M92.86200000000001 20.076000000000004 l1.617 -0.147 t1.344 -0.126 t1.365 -0.084 t1.68 -0.021 q2.016 0 3.969 0.42 t3.507 1.449 t2.499 2.772 t0.945 4.389 q0 1.638 -0.588 2.982 t-1.533 2.415 t-2.184 1.848 t-2.541 1.281 l-0.336 0.126 l9.618 13.02 q-0.42 0.084 -0.84 0.084 l-0.84 0 l-0.819 0 t-0.819 -0.084 l-10.584 -13.986 l0 -0.168 l0.924 -0.252 q1.428 -0.378 2.772 -0.987 t2.373 -1.47 t1.659 -2.037 t0.63 -2.772 q0 -3.276 -2.016 -4.914 t-5.46 -1.638 q-0.882 0 -1.638 0.042 t-1.806 0.168 l0 28.014 q-0.294 0.042 -0.714 0.063 t-0.756 0.021 q-0.378 0 -0.756 -0.021 t-0.672 -0.063 l0 -30.324 z M117.516 20.202000000000005 q0.294 -0.042 0.714 -0.063 t0.756 -0.021 q0.378 0 0.756 0.021 t0.672 0.063 l0 30.198 q-0.294 0.042 -0.672 0.063 t-0.756 0.021 q-0.42 0 -0.819 -0.021 t-0.651 -0.063 l0 -30.198 z M125.244 50.06400000000001 l17.094 -27.216 l-14.658 0 q-0.042 -0.21 -0.063 -0.588 t-0.021 -0.714 t0.021 -0.735 t0.063 -0.609 l19.194 0 l0.21 0.294 l-17.22 27.258 l15.834 0 q0.042 0.21 0.063 0.63 t0.021 0.756 t-0.021 0.693 t-0.063 0.567 l-20.244 0 z M158.886 20.202000000000005 q0.294 -0.042 0.798 -0.063 t0.924 -0.021 q0.462 0 0.945 0.021 t0.777 0.063 l10.08 30.198 q-0.252 0.042 -0.714 0.063 t-0.882 0.021 q-0.378 0 -0.798 -0.021 t-0.714 -0.063 l-2.52 -7.686 l-12.432 0 l-2.394 7.686 q-0.336 0.042 -0.777 0.063 t-0.819 0.021 q-0.42 0 -0.861 -0.021 t-0.693 -0.063 z M165.942 40.026 l-5.418 -16.8 l-5.334 16.8 l10.752 0 z"></path></g><defs id="SvgjsDefs1084"></defs><g id="SvgjsG1086" rel="mainfill" name="symbol" xmlns:name="symbol_mainfill" fill="#333333" transform="translate(-1.940042617592417,-6.2081372220872515) scale(0.5542979284992404)"><g xmlns="http://www.w3.org/2000/svg"><path d="M94.8,78.1v0.3c0,1.4-1.2,2.6-2.7,2.6H6.2c-1.5,0-2.7-1.2-2.7-2.6v-0.3l9.2-22.2c0-0.1,0-0.3,0-0.4V21.2v-7.5   c0-1.4,1.3-2.5,2.8-2.5h67.2c1.6,0,2.9,1.1,2.9,2.5v4.8v37c0,0.1,0,0.3,0,0.4L94.8,78.1z M81.9,54.5V14.6H16.3v39.9H81.9z    M64.6,72.4v-0.3l-1.9-4.7c-0.2-1-1.1-1.8-2.3-1.8h-24c-1.2,0-2.1,0.8-2.3,1.8l-1.9,4.7l0,0c-0.4,1.5,1.1,2.5,2.4,2.5h27.7   C63.5,74.6,64.6,73.6,64.6,72.4z"></path><polygon points="60.1,68.4 61.5,71.9 35.3,71.9 36.7,68.4  "></polygon></g><g xmlns="http://www.w3.org/2000/svg"><g><path d="M52.6,25.1c-3.3,6.2-6.6,12.4-9.8,18.6c-1,1.8,1.8,3.5,2.8,1.6c3.3-6.2,6.6-12.4,9.8-18.6C56.3,24.9,53.6,23.3,52.6,25.1    L52.6,25.1z"></path></g><g><g><g><path d="M29.5,36.2c-0.6-0.7-0.6-1.5,0-2.3c2.5-3.1,5-6.2,7.5-9.3c1.3-1.6,3.5,0.6,2.3,2.3c-2.2,2.7-4.3,5.5-6.5,8.2      c2.2,2.7,4.3,5.5,6.5,8.2c1.3,1.6-1,3.9-2.3,2.3C34.4,42.3,31.9,39.2,29.5,36.2z"></path><path d="M59.1,26.9c-1.3-1.6,1-3.9,2.3-2.3c2.5,3.1,5,6.2,7.5,9.3c0.6,0.7,0.6,1.5,0,2.3c-2.5,3.1-5,6.2-7.5,9.3      c-1.3,1.6-3.5-0.6-2.3-2.3c2.2-2.7,4.3-5.5,6.5-8.2C63.4,32.4,61.3,29.7,59.1,26.9z"></path></g></g></g></g></g></svg>